<?xml version="1.0" standalone="no"?><svg xmlns="http://www.w3.org/2000/svg" viewBox="0 0 1440 320"><path fill="#679AB4" fill-opacity="1" d="M0,224L17.1,208C34.3,192,69,160,103,160C137.1,160,171,192,206,213.3C240,235,274,245,309,256C342.9,267,377,277,411,250.7C445.7,224,480,160,514,165.3C548.6,171,583,245,617,234.7C651.4,224,686,128,720,122.7C754.3,117,789,203,823,218.7C857.1,235,891,181,926,176C960,171,994,213,1029,202.7C1062.9,192,1097,128,1131,112C1165.7,96,1200,128,1234,154.7C1268.6,181,1303,203,1337,202.7C1371.4,203,1406,181,1423,170.7L1440,160L1440,320L1422.9,320C1405.7,320,1371,320,1337,320C1302.9,320,1269,320,1234,320C1200,320,1166,320,1131,320C1097.1,320,1063,320,1029,320C994.3,320,960,320,926,320C891.4,320,857,320,823,320C788.6,320,754,320,720,320C685.7,320,651,320,617,320C582.9,320,549,320,514,320C480,320,446,320,411,320C377.1,320,343,320,309,320C274.3,320,240,320,206,320C171.4,320,137,320,103,320C68.6,320,34,320,17,320L0,320Z"></path></svg>