<?xml version="1.0" standalone="no"?><svg xmlns="http://www.w3.org/2000/svg" viewBox="0 0 1440 320"><path fill="#385D70" fill-opacity="1" d="M0,64L14.1,101.3C28.2,139,56,213,85,218.7C112.9,224,141,160,169,128C197.6,96,226,96,254,133.3C282.4,171,311,245,339,261.3C367.1,277,395,235,424,229.3C451.8,224,480,256,508,266.7C536.5,277,565,267,593,240C621.2,213,649,171,678,144C705.9,117,734,107,762,117.3C790.6,128,819,160,847,160C875.3,160,904,128,932,133.3C960,139,988,181,1016,192C1044.7,203,1073,181,1101,186.7C1129.4,192,1158,224,1186,213.3C1214.1,203,1242,149,1271,117.3C1298.8,85,1327,75,1355,69.3C1383.5,64,1412,64,1426,64L1440,64L1440,320L1425.9,320C1411.8,320,1384,320,1355,320C1327.1,320,1299,320,1271,320C1242.4,320,1214,320,1186,320C1157.6,320,1129,320,1101,320C1072.9,320,1045,320,1016,320C988.2,320,960,320,932,320C903.5,320,875,320,847,320C818.8,320,791,320,762,320C734.1,320,706,320,678,320C649.4,320,621,320,593,320C564.7,320,536,320,508,320C480,320,452,320,424,320C395.3,320,367,320,339,320C310.6,320,282,320,254,320C225.9,320,198,320,169,320C141.2,320,113,320,85,320C56.5,320,28,320,14,320L0,320Z"></path></svg>