<?xml version="1.0" standalone="no"?><svg xmlns="http://www.w3.org/2000/svg" viewBox="0 0 1440 320"><path fill="#679AB4" fill-opacity="1" d="M0,224L14.1,208C28.2,192,56,160,85,170.7C112.9,181,141,235,169,261.3C197.6,288,226,288,254,288C282.4,288,311,288,339,282.7C367.1,277,395,267,424,256C451.8,245,480,235,508,240C536.5,245,565,267,593,256C621.2,245,649,203,678,208C705.9,213,734,267,762,282.7C790.6,299,819,277,847,250.7C875.3,224,904,192,932,160C960,128,988,96,1016,80C1044.7,64,1073,64,1101,90.7C1129.4,117,1158,171,1186,208C1214.1,245,1242,267,1271,266.7C1298.8,267,1327,245,1355,234.7C1383.5,224,1412,224,1426,224L1440,224L1440,320L1425.9,320C1411.8,320,1384,320,1355,320C1327.1,320,1299,320,1271,320C1242.4,320,1214,320,1186,320C1157.6,320,1129,320,1101,320C1072.9,320,1045,320,1016,320C988.2,320,960,320,932,320C903.5,320,875,320,847,320C818.8,320,791,320,762,320C734.1,320,706,320,678,320C649.4,320,621,320,593,320C564.7,320,536,320,508,320C480,320,452,320,424,320C395.3,320,367,320,339,320C310.6,320,282,320,254,320C225.9,320,198,320,169,320C141.2,320,113,320,85,320C56.5,320,28,320,14,320L0,320Z"></path></svg>